<svg version="1.1" id="Layer_1" xmlns="http://www.w3.org/2000/svg" xmlns:xlink="http://www.w3.org/1999/xlink" x="0px" y="0px"
	 width="100%" viewBox="0 0 1024 1024" enable-background="new 0 0 1024 1024" xml:space="preserve">
<path fill="#000000" opacity="1.000000" stroke="none" 
	d="
M660.999878,419.366089 
	C609.689758,419.361694 558.879517,419.266327 508.069885,419.413544 
	C493.679657,419.455261 481.404755,424.394501 472.809265,436.705139 
	C466.900543,445.167786 460.675018,453.409119 454.757202,461.865631 
	C452.938538,464.464569 450.844330,465.483856 447.680054,465.476898 
	C408.865326,465.391266 370.050385,465.420746 331.235474,465.396698 
	C329.132812,465.395386 326.730194,465.893616 325.599976,463.297272 
	C324.563019,460.915222 325.973175,459.131470 327.269714,457.391815 
	C348.068115,429.485077 368.276398,401.111908 389.833862,373.803986 
	C418.811188,337.097046 457.407196,318.180176 504.188507,317.945587 
	C596.643677,317.481934 689.102600,317.761841 781.559998,317.759521 
	C789.206665,317.759338 792.096558,320.996338 790.357239,328.288452 
	C780.072510,371.406921 754.048462,400.250854 711.934387,414.528595 
	C695.457947,420.114532 678.459900,419.320374 660.999878,419.366089 
z"/>
<path fill="#000000" opacity="1.000000" stroke="none" 
	d="
M499.923462,608.873901 
	C481.012421,634.698792 461.786072,659.872375 443.792358,685.898254 
	C425.834656,711.872131 401.302429,724.119080 370.363159,725.438721 
	C347.709686,726.405029 325.073059,726.508545 302.430481,725.405762 
	C293.672852,724.979248 291.366760,720.350952 296.331757,712.819946 
	C309.173401,693.341370 323.192871,674.690979 336.868164,655.803711 
	C355.134186,630.576050 373.686951,605.555908 392.123505,580.451721 
	C411.944977,553.461853 431.780701,526.482483 451.594330,499.486816 
	C454.865387,495.030029 459.322205,493.671295 464.677551,493.682373 
	C501.675903,493.758728 538.674561,493.705017 575.673096,493.699554 
	C609.671753,493.694519 643.670349,493.687469 677.669006,493.719940 
	C679.911011,493.722076 682.554199,493.097412 683.793152,495.879700 
	C684.929443,498.431549 684.219238,500.869141 682.591858,502.916687 
	C664.494141,525.687073 649.074768,550.809326 625.717285,568.997192 
	C609.379150,581.719238 590.926575,589.742126 570.239319,592.357056 
	C554.131042,594.393250 537.964539,593.203003 521.832947,593.200623 
	C514.214111,593.199463 508.591095,595.389343 504.792175,602.090454 
	C503.485291,604.395691 501.709839,606.435242 499.923462,608.873901 
z"/>
<path fill="#000000" opacity="1.000000" stroke="none" 
	d="
M272.999817,580.385742 
	C265.170013,580.373901 257.840240,580.358215 250.510437,580.353027 
	C247.679092,580.351013 244.601746,580.760986 243.179626,577.468384 
	C241.862488,574.418823 242.772583,571.551819 244.663574,569.027100 
	C249.754776,562.229309 254.857620,555.438721 260.061768,548.727478 
	C268.726929,537.552673 276.946564,526.017029 288.175018,517.063660 
	C306.641449,502.338989 327.620819,494.308990 351.160248,493.818604 
	C373.806335,493.346832 396.469666,493.695160 419.125427,493.710175 
	C420.929382,493.711365 422.804993,493.391815 424.513702,494.417328 
	C425.670593,496.468292 424.275421,497.996796 423.224304,499.358032 
	C411.122375,515.030823 401.148041,532.372742 387.347137,546.684570 
	C367.105286,567.675842 342.571991,579.827820 312.980286,580.339417 
	C299.823822,580.566956 286.660187,580.383240 272.999817,580.385742 
z"/>
</svg>